<svg width="128" height="32" viewBox="0 0 128 32" fill="none" xmlns="http://www.w3.org/2000/svg">
<path d="M16.0427 28.3689C22.9015 28.3689 28.4682 22.8219 28.4682 15.9872C28.4682 9.15248 22.9015 3.60547 16.0427 3.60547C9.1838 3.60547 3.61719 9.15248 3.61719 15.9872C3.61719 22.8219 9.1838 28.3689 16.0427 28.3689Z" fill="#262424"/>
<path fill-rule="evenodd" clip-rule="evenodd" d="M16.042 22.3781C19.5833 22.3781 22.4536 19.5179 22.4536 15.9892C22.4536 12.4604 19.5833 9.60018 16.042 9.60018C12.5008 9.60018 9.63049 12.4604 9.63049 15.9892C9.63049 19.5179 12.5008 22.3781 16.042 22.3781ZM24.4044 15.9892C24.4044 20.5952 20.6643 24.3221 16.042 24.3221C11.4198 24.3221 7.67969 20.5952 7.67969 15.9892C7.67969 11.3831 11.4198 7.65625 16.042 7.65625C20.6643 7.65625 24.4044 11.3831 24.4044 15.9892Z" fill="url(#paint0_linear_3312_55946)"/>
<path d="M44.3741 11.0977C43.2807 11.0977 41.8517 11.6177 41.2677 12.8435V11.2958H39.9258V20.6811H41.2677V15.5551C41.2677 13.2645 42.8955 12.4225 44.3741 12.4225C45.8155 12.4225 46.6355 13.4873 46.6355 15.2084V20.6811H47.9775V15.2208C48.0023 12.6701 46.6604 11.0977 44.3741 11.0977Z" fill="white"/>
<path d="M65.4718 11.0977C64.3783 11.0977 62.9494 11.6177 62.3654 12.8435V11.2958H61.0234V20.6811H62.3654V15.5551C62.3654 13.2645 63.9931 12.4225 65.4718 12.4225C66.9131 12.4225 67.7332 13.4873 67.7332 15.2084V20.6811H69.0751V15.2208C69.1 12.6701 67.758 11.0977 65.4718 11.0977Z" fill="white"/>
<path d="M71.5742 11.3086V20.6939H72.9037L72.8913 11.3086H71.5742Z" fill="white"/>
<path d="M90.0613 15.963C90.0613 12.9914 88.1478 11.1094 85.4763 11.1094C82.8048 11.1094 80.7422 12.9914 80.7422 15.963C80.7422 18.9346 82.7924 20.8786 85.4887 20.8786C87.365 20.8786 88.9927 19.888 89.7507 18.2165C89.3282 18.1174 88.8063 18.0184 88.4087 17.9193C87.8247 18.947 86.7437 19.5537 85.4887 19.5537C83.7492 19.5537 82.3575 18.4889 82.1214 16.6564H90.0489C90.0613 16.483 90.0613 16.1611 90.0613 15.963ZM82.109 15.3315C82.3699 13.5486 83.7492 12.4218 85.4763 12.4218C87.191 12.4218 88.4336 13.5362 88.6945 15.3315H82.109Z" fill="white"/>
<path d="M58.1928 11.293H56.8633V20.6783H58.1928V11.293Z" fill="white"/>
<path d="M37.0451 11.293H35.7031V20.6783H37.0451V11.293Z" fill="white"/>
<path d="M77.9836 6.97266H76.6416V11.3063H75.1133V12.6435H76.6416V20.6916H77.9836V12.6435H79.5119V11.3063H77.9836V6.97266Z" fill="white"/>
<path d="M54.2025 6.97266C51.7422 6.97266 50.9346 8.71848 50.9346 10.972V11.2939H49.4062V12.6187H50.9346V20.6916H52.2765V12.6187H54.7492V11.3063H52.2765V10.9843C52.2517 9.74616 52.4132 8.26036 54.1901 8.26036H55.1841V6.98503L54.2025 6.97266Z" fill="white"/>
<path d="M36.3722 6.97266H36.335C35.8007 6.98504 35.3906 7.4184 35.3906 7.95081C35.3906 8.49561 35.8255 8.92897 36.3722 8.92897C36.919 8.92897 37.3539 8.49561 37.3539 7.95081C37.3414 7.40602 36.9065 6.97266 36.3722 6.97266Z" fill="white"/>
<path d="M72.2316 6.97266C71.6973 6.97266 71.2624 7.40602 71.25 7.95081C71.25 8.49561 71.6849 8.92897 72.2316 8.92897C72.7659 8.92897 73.2132 8.49561 73.2132 7.95081C73.2132 7.40602 72.7783 6.97266 72.2316 6.97266Z" fill="white"/>
<path d="M57.5317 6.96094H57.5068C56.9725 6.97332 56.5625 7.40668 56.5625 7.93909C56.5625 8.48389 56.9974 8.91725 57.5317 8.91725C58.066 8.91725 58.5133 8.48389 58.5133 7.93909C58.5009 7.40668 58.066 6.96094 57.5317 6.96094Z" fill="white"/>
<path d="M97.4921 11.0977C96.262 11.0977 95.0691 11.6425 94.5721 12.5711V11.3081H92.1367V25.25H94.5721V19.4429C95.0691 20.384 96.2744 20.8916 97.4921 20.8916C99.9399 20.8916 102.065 18.9848 102.065 15.9884C102.065 13.0292 99.9399 11.0977 97.4921 11.0977ZM97.0945 18.5515C95.8147 18.5515 94.6218 17.6476 94.6094 16.0256C94.6094 14.4531 95.7401 13.4502 97.0945 13.4502C98.4489 13.4502 99.5547 14.5026 99.5547 16.0256C99.5547 17.5485 98.4364 18.5515 97.0945 18.5515Z" fill="white"/>
<path d="M110.812 11.3081V12.472C110.128 11.4196 108.749 11.0977 107.904 11.0977C105.444 11.0977 103.133 12.9797 103.133 15.9884C103.133 18.9848 105.432 20.8792 107.904 20.8792C108.824 20.8792 110.203 20.4582 110.812 19.4925V20.6935H113.247V11.3081H110.812ZM108.252 18.5019H108.215C106.811 18.5143 105.68 17.3752 105.668 15.9761C105.668 14.4531 106.91 13.4502 108.252 13.4502C109.532 13.4502 110.824 14.3788 110.824 15.9761C110.812 17.5857 109.569 18.5019 108.252 18.5019Z" fill="white"/>
<path d="M121.797 11.6055L119.461 17.4373L117.137 11.6055H114.516L118.119 20.3841L116.044 25.5349H118.616L124.381 11.6055H121.797Z" fill="white"/>
<defs>
<linearGradient id="paint0_linear_3312_55946" x1="16.042" y1="7.65625" x2="16.042" y2="24.3221" gradientUnits="userSpaceOnUse">
<stop stop-color="#00EF26"/>
<stop offset="1" stop-color="#FFC700"/>
</linearGradient>
</defs>
</svg>
